<?xml version="1.0" encoding="UTF-8"?>
<svg xmlns="http://www.w3.org/2000/svg" version="1.1" width="300" height="300" viewBox="0 0 300 300"><rect x="0" y="0" width="300" height="300" fill="#ffffff"/><g transform="scale(14.286)"><g transform="translate(0,0)"><path fill-rule="evenodd" d="M10 0L10 1L11 1L11 0ZM12 0L12 2L13 2L13 0ZM8 2L8 3L9 3L9 2ZM10 2L10 3L11 3L11 2ZM12 3L12 4L11 4L11 5L10 5L10 4L9 4L9 6L8 6L8 8L4 8L4 9L3 9L3 8L0 8L0 9L3 9L3 11L2 11L2 10L1 10L1 12L0 12L0 13L1 13L1 12L2 12L2 13L3 13L3 12L4 12L4 13L8 13L8 17L9 17L9 18L8 18L8 21L10 21L10 19L11 19L11 16L12 16L12 17L15 17L15 16L16 16L16 15L15 15L15 14L16 14L16 13L15 13L15 12L16 12L16 11L18 11L18 12L17 12L17 14L18 14L18 15L17 15L17 16L18 16L18 15L19 15L19 16L20 16L20 14L18 14L18 12L21 12L21 11L20 11L20 10L19 10L19 11L18 11L18 9L19 9L19 8L18 8L18 9L16 9L16 10L15 10L15 12L14 12L14 13L13 13L13 14L12 14L12 12L13 12L13 11L14 11L14 10L13 10L13 11L12 11L12 9L15 9L15 8L12 8L12 9L11 9L11 6L12 6L12 7L13 7L13 6L12 6L12 5L13 5L13 3ZM9 6L9 10L8 10L8 9L4 9L4 10L7 10L7 11L4 11L4 12L7 12L7 11L10 11L10 12L11 12L11 11L10 11L10 10L11 10L11 9L10 9L10 6ZM9 13L9 14L10 14L10 15L9 15L9 17L10 17L10 15L12 15L12 14L10 14L10 13ZM14 13L14 14L13 14L13 15L14 15L14 16L15 16L15 15L14 15L14 14L15 14L15 13ZM17 17L17 18L18 18L18 17ZM19 17L19 18L20 18L20 19L19 19L19 20L18 20L18 21L19 21L19 20L20 20L20 21L21 21L21 18L20 18L20 17ZM14 18L14 21L15 21L15 18ZM12 19L12 20L13 20L13 19ZM16 20L16 21L17 21L17 20ZM0 0L0 7L7 7L7 0ZM1 1L1 6L6 6L6 1ZM2 2L2 5L5 5L5 2ZM14 0L14 7L21 7L21 0ZM15 1L15 6L20 6L20 1ZM16 2L16 5L19 5L19 2ZM0 14L0 21L7 21L7 14ZM1 15L1 20L6 20L6 15ZM2 16L2 19L5 19L5 16Z" fill="#000000"/></g></g></svg>
