<?xml version="1.0" encoding="UTF-8"?>
<svg xmlns="http://www.w3.org/2000/svg" version="1.1" width="300" height="300" viewBox="0 0 300 300"><rect x="0" y="0" width="300" height="300" fill="#ffffff"/><g transform="scale(14.286)"><g transform="translate(0,0)"><path fill-rule="evenodd" d="M8 0L8 2L9 2L9 4L8 4L8 9L7 9L7 8L5 8L5 9L4 9L4 10L2 10L2 9L3 9L3 8L0 8L0 10L1 10L1 11L4 11L4 13L7 13L7 12L6 12L6 11L9 11L9 12L8 12L8 14L10 14L10 17L9 17L9 18L8 18L8 21L9 21L9 18L10 18L10 19L12 19L12 20L13 20L13 21L14 21L14 20L13 20L13 19L16 19L16 21L21 21L21 18L19 18L19 17L20 17L20 16L18 16L18 15L20 15L20 14L19 14L19 13L21 13L21 11L19 11L19 10L20 10L20 9L21 9L21 8L19 8L19 10L18 10L18 9L17 9L17 8L12 8L12 7L13 7L13 6L12 6L12 7L11 7L11 5L10 5L10 7L9 7L9 4L10 4L10 3L11 3L11 4L12 4L12 5L13 5L13 3L12 3L12 2L13 2L13 0ZM10 1L10 2L11 2L11 1ZM6 9L6 10L7 10L7 9ZM8 9L8 10L9 10L9 11L10 11L10 10L11 10L11 13L10 13L10 12L9 12L9 13L10 13L10 14L13 14L13 16L14 16L14 14L16 14L16 15L15 15L15 16L17 16L17 17L15 17L15 18L17 18L17 20L20 20L20 19L18 19L18 18L17 18L17 17L18 17L18 16L17 16L17 11L16 11L16 10L17 10L17 9L16 9L16 10L15 10L15 9L14 9L14 10L15 10L15 11L16 11L16 12L14 12L14 13L13 13L13 12L12 12L12 11L13 11L13 9L10 9L10 10L9 10L9 9ZM8 15L8 16L9 16L9 15ZM11 15L11 17L10 17L10 18L14 18L14 17L12 17L12 15ZM0 0L0 7L7 7L7 0ZM1 1L1 6L6 6L6 1ZM2 2L2 5L5 5L5 2ZM14 0L14 7L21 7L21 0ZM15 1L15 6L20 6L20 1ZM16 2L16 5L19 5L19 2ZM0 14L0 21L7 21L7 14ZM1 15L1 20L6 20L6 15ZM2 16L2 19L5 19L5 16Z" fill="#000000"/></g></g></svg>
